<svg xmlns="http://www.w3.org/2000/svg" version="1.1" xmlns:xlink="http://www.w3.org/1999/xlink" width="512" height="512" x="0" y="0" viewBox="0 0 64 64" style="enable-background:new 0 0 512 512" xml:space="preserve" class=""><g><path d="M42.798 37.103a1.009 1.009 0 0 0-1.365-.9l-9.439 3.548-9.439-3.548a1.007 1.007 0 0 0-1.364.9l-.707 18.332a1.01 1.01 0 0 0 .697.99l10.328 3.457a1.076 1.076 0 0 0 1-.01l10.299-3.447a1.022 1.022 0 0 0 .697-.99c-.007-.565-.707-18.332-.707-18.332z" fill="#ffffff" opacity="1" data-original="#ffffff" class=""></path><path d="m55.531 47.674-5.427-14.977a6.121 6.121 0 0 0-5.76-4.043h-5.275a4.196 4.196 0 0 0-1.91.465l-3.598 1.85a3.49 3.49 0 0 1-3.133 0l-3.598-1.85a4.206 4.206 0 0 0-1.92-.465h-5.265a6.154 6.154 0 0 0-5.77 4.043L8.457 47.674a2.842 2.842 0 0 0 2.657 3.81h7.5l.555-14.452a3.01 3.01 0 0 1 1.344-2.415 3.049 3.049 0 0 1 2.749-.314l8.731 3.285 8.732-3.285a3.05 3.05 0 0 1 4.093 2.719l.546 14.462h7.498a2.85 2.85 0 0 0 2.668-3.81zM31.994 28.129c6.155 0 10.622-8.105 10.622-13.563-.583-14.09-20.662-14.086-21.243 0 0 5.458 4.467 13.563 10.621 13.563z" fill="#ffffff" opacity="1" data-original="#ffffff" class=""></path></g></svg>